<?xml version="1.0" encoding="UTF-8" standalone="no"?>
<svg
   width="51"
   height="50"
   viewBox="0 0 51 50"
   fill="none"
   version="1.1"
   id="svg8"
   sodipodi:docname="24-hours.svg"
   inkscape:version="1.3 (0e150ed, 2023-07-21)"
   xmlns:inkscape="http://www.inkscape.org/namespaces/inkscape"
   xmlns:sodipodi="http://sodipodi.sourceforge.net/DTD/sodipodi-0.dtd"
   xmlns="http://www.w3.org/2000/svg"
   xmlns:svg="http://www.w3.org/2000/svg">
  <sodipodi:namedview
     id="namedview8"
     pagecolor="#505050"
     bordercolor="#eeeeee"
     borderopacity="1"
     inkscape:showpageshadow="0"
     inkscape:pageopacity="0"
     inkscape:pagecheckerboard="0"
     inkscape:deskcolor="#505050"
     inkscape:zoom="4.72"
     inkscape:cx="25.423729"
     inkscape:cy="25"
     inkscape:window-width="1312"
     inkscape:window-height="449"
     inkscape:window-x="0"
     inkscape:window-y="25"
     inkscape:window-maximized="0"
     inkscape:current-layer="g8" />
  <g
     clip-path="url(#clip0_1_576)"
     id="g8">
    <path
       d="M47.927 14.2852C47.7534 13.9197 47.3162 13.7643 46.9512 13.9379C46.5858 14.1114 46.4303 14.5483 46.6038 14.9138C48.1066 18.077 48.8685 21.4705 48.8685 25.0001C48.8685 31.2866 46.4204 37.1968 41.9752 41.642C37.5301 46.0872 31.6198 48.5353 25.3333 48.5353C21.6051 48.5353 18.0397 47.6892 14.7363 46.0205C11.9839 44.6301 9.49727 42.678 7.47813 40.3323L10.3679 41.2956C10.7516 41.4235 11.1664 41.2161 11.2943 40.8323C11.4223 40.4485 11.2148 40.0338 10.8311 39.9059L5.63086 38.1725C5.39004 38.0923 5.1248 38.1423 4.92998 38.305C4.73515 38.4677 4.63838 38.7196 4.67422 38.9709L5.54092 45.0378C5.59316 45.4031 5.90644 45.6667 6.26514 45.6667C6.29961 45.6667 6.33447 45.6643 6.36963 45.6593C6.77012 45.602 7.04834 45.2311 6.99111 44.8307L6.50752 41.4456C8.62656 43.8655 11.2152 45.8829 14.076 47.328C17.5859 49.1011 21.3734 50.0001 25.3333 50.0001C32.0111 50.0001 38.2892 47.3996 43.0111 42.6778C47.7328 37.9559 50.3333 31.6778 50.3333 25.0001C50.3333 21.2514 49.5238 17.6464 47.927 14.2852Z"
       fill="#6E2717"
       id="path1"
       style="fill:#000000;fill-opacity:1" />
    <path
       d="M45.9925 11.0293L45.1258 4.9624C45.0686 4.56191 44.6967 4.28389 44.2972 4.34092C43.8967 4.39814 43.6185 4.76914 43.6757 5.16953L44.1588 8.55117C39.4025 3.10156 32.6124 0 25.3333 0C18.6556 0 12.3776 2.60049 7.65558 7.32227C2.9338 12.0442 0.333313 18.3223 0.333313 25C0.333313 28.7488 1.14298 32.3539 2.73966 35.7149C2.86505 35.9789 3.12775 36.1333 3.40177 36.1333C3.50704 36.1333 3.61407 36.1105 3.71554 36.0622C4.08087 35.8887 4.23634 35.4518 4.0628 35.0863C2.56007 31.9233 1.79816 28.5298 1.79816 25C1.79816 18.7135 4.2462 12.8033 8.69142 8.35811C13.1366 3.91289 19.0468 1.46484 25.3333 1.46484C32.2528 1.46484 38.7027 4.44277 43.1864 9.66709L40.2988 8.70459C39.9149 8.57646 39.5002 8.78408 39.3724 9.16787C39.2445 9.55166 39.4518 9.96641 39.8356 10.0943L45.0358 11.8277C45.1115 11.8529 45.1897 11.8653 45.2673 11.8653C45.4364 11.8653 45.603 11.8067 45.7367 11.6952C45.9316 11.5325 46.0283 11.2806 45.9925 11.0293Z"
       fill="#6E2717"
       id="path2"
       style="fill:#000000;fill-opacity:1" />
    <path
       d="M23.2979 32.8787H15.9303C16.2246 30.3152 18.0462 28.5953 19.9651 26.7833C21.9637 24.8962 24.0303 22.9449 24.0303 20.0146C24.0303 17.6116 21.8757 15.6565 19.2272 15.6565C16.5788 15.6565 14.4241 17.6116 14.4241 20.0146C14.4241 20.4191 14.752 20.747 15.1565 20.747C15.561 20.747 15.8889 20.4191 15.8889 20.0146C15.8889 18.4193 17.3864 17.1213 19.2272 17.1213C21.068 17.1213 22.5655 18.4193 22.5655 20.0146C22.5655 22.3134 20.8138 23.9673 18.9594 25.7183C16.8336 27.7255 14.4241 30.0006 14.4241 33.6111C14.4241 34.0156 14.752 34.3435 15.1565 34.3435H23.2979C23.7024 34.3435 24.0303 34.0156 24.0303 33.6111C24.0303 33.2066 23.7024 32.8787 23.2979 32.8787Z"
       fill="#6E2717"
       id="path3"
       style="fill:#000000;fill-opacity:1" />
    <path
       d="M35.51 28.1816H34.6768V16.3889C34.6768 15.9844 34.349 15.6565 33.9444 15.6565C33.5398 15.6565 33.212 15.9844 33.212 16.3889V28.1817H26.9987L29.1844 16.524C29.259 16.1264 28.9971 15.7436 28.5996 15.6691C28.2024 15.595 27.8194 15.8564 27.7448 16.254L25.3963 28.7792C25.3562 28.9933 25.4134 29.2142 25.5526 29.3819C25.6918 29.5496 25.8983 29.6465 26.1162 29.6465H33.212V33.6111C33.212 34.0155 33.5398 34.3434 33.9444 34.3434C34.349 34.3434 34.6768 34.0155 34.6768 33.611V29.6464H35.51C35.9146 29.6464 36.2424 29.3185 36.2424 28.914C36.2424 28.5095 35.9146 28.1816 35.51 28.1816Z"
       fill="#6E2717"
       id="path4"
       style="fill:#000000;fill-opacity:1" />
    <path
       d="M25.3333 3.91406C24.9288 3.91406 24.6009 4.24199 24.6009 4.64648V7.77773C24.6009 8.18223 24.9288 8.51016 25.3333 8.51016C25.7379 8.51016 26.0657 8.18223 26.0657 7.77773V4.64648C26.0657 4.24199 25.7379 3.91406 25.3333 3.91406Z"
       fill="#6E2717"
       id="path5"
       style="fill:#000000;fill-opacity:1" />
    <path
       d="M25.3333 41.4897C24.9288 41.4897 24.6009 41.8177 24.6009 42.2222V45.3534C24.6009 45.7579 24.9288 46.0858 25.3333 46.0858C25.7379 46.0858 26.0657 45.7579 26.0657 45.3534V42.2222C26.0657 41.8177 25.7379 41.4897 25.3333 41.4897Z"
       fill="#6E2717"
       id="path6"
       style="fill:#000000;fill-opacity:1" />
    <path
       d="M45.6866 24.2676H42.5554C42.1508 24.2676 41.823 24.5955 41.823 25C41.823 25.4045 42.1508 25.7324 42.5554 25.7324H45.6866C46.0912 25.7324 46.4191 25.4045 46.4191 25C46.4191 24.5955 46.0912 24.2676 45.6866 24.2676Z"
       fill="#6E2717"
       id="path7"
       style="fill:#000000;fill-opacity:1" />
    <path
       d="M8.1111 24.2676H4.97985C4.57535 24.2676 4.24743 24.5955 4.24743 25C4.24743 25.4045 4.57535 25.7324 4.97985 25.7324H8.1111C8.51559 25.7324 8.84352 25.4045 8.84352 25C8.84352 24.5955 8.51559 24.2676 8.1111 24.2676Z"
       fill="#6E2717"
       id="path8"
       style="fill:#000000;fill-opacity:1" />
  </g>
  <defs
     id="defs8">
    <clipPath
       id="clip0_1_576">
      <rect
         width="50"
         height="50"
         fill="white"
         transform="translate(0.333313)"
         id="rect8" />
    </clipPath>
  </defs>
</svg>
