<?xml version="1.0" encoding="UTF-8" standalone="no"?>
<svg
   width="65"
   height="39"
   viewBox="0 0 65 39"
   fill="none"
   version="1.1"
   id="svg4"
   sodipodi:docname="delivery-truck.svg"
   inkscape:version="1.3 (0e150ed, 2023-07-21)"
   xmlns:inkscape="http://www.inkscape.org/namespaces/inkscape"
   xmlns:sodipodi="http://sodipodi.sourceforge.net/DTD/sodipodi-0.dtd"
   xmlns="http://www.w3.org/2000/svg"
   xmlns:svg="http://www.w3.org/2000/svg">
  <defs
     id="defs4" />
  <sodipodi:namedview
     id="namedview4"
     pagecolor="#505050"
     bordercolor="#eeeeee"
     borderopacity="1"
     inkscape:showpageshadow="0"
     inkscape:pageopacity="0"
     inkscape:pagecheckerboard="0"
     inkscape:deskcolor="#505050"
     inkscape:zoom="6.0512821"
     inkscape:cx="32.555085"
     inkscape:cy="19.5"
     inkscape:window-width="1312"
     inkscape:window-height="449"
     inkscape:window-x="0"
     inkscape:window-y="25"
     inkscape:window-maximized="0"
     inkscape:current-layer="svg4" />
  <path
     d="M14.6301 30.5869C13.5606 30.5869 12.6906 31.4569 12.6906 32.5264C12.6906 33.5959 13.5606 34.4659 14.6301 34.4659C15.6996 34.4659 16.5696 33.5959 16.5696 32.5264C16.5696 31.4569 15.6996 30.5869 14.6301 30.5869Z"
     fill="#6E2717"
     id="path1"
     style="fill:#000000;fill-opacity:1" />
  <path
     d="M54.7112 30.5869C53.6417 30.5869 52.7717 31.4569 52.7717 32.5264C52.7717 33.5959 53.6417 34.4659 54.7112 34.4659C55.7807 34.4659 56.6507 33.5959 56.6507 32.5264C56.6507 31.4569 55.7807 30.5869 54.7112 30.5869Z"
     fill="#6E2717"
     id="path2"
     style="fill:#000000;fill-opacity:1" />
  <path
     d="M62.6553 18.1537L55.4373 15.7477L52.0636 6.4705C51.6425 5.31237 50.5316 4.53425 49.2993 4.53425H40.6183V2.46562C40.6183 1.39612 39.7482 0.526123 38.6787 0.526123H2.60613C1.53663 0.526123 0.666626 1.39625 0.666626 2.46575V29.5202C0.666626 30.5897 1.53663 31.4597 2.60613 31.4597H8.78038C8.71738 31.806 8.68275 32.1621 8.68275 32.5262C8.68275 35.8057 11.3509 38.4739 14.6304 38.4739C17.9099 38.4739 20.578 35.8057 20.578 32.5262C20.578 32.162 20.5434 31.806 20.4804 31.4597H48.8613C48.7983 31.806 48.7636 32.1621 48.7636 32.5262C48.7636 35.8057 51.4318 38.4739 54.7113 38.4739C57.9907 38.4739 60.6589 35.8057 60.6589 32.5262C60.6589 32.063 60.6039 31.6125 60.5033 31.1795L62.4871 30.1876C63.8314 29.5152 64.6666 28.1636 64.6666 26.6602V20.9444C64.6666 19.6764 63.8584 18.5549 62.6553 18.1537ZM2.54163 2.46575C2.54163 2.43012 2.5705 2.40112 2.60613 2.40112H38.6787C38.7144 2.40112 38.7433 2.43 38.7433 2.46562V22.5705H2.54163V2.46575ZM14.6303 36.5989C12.3846 36.5989 10.5576 34.7719 10.5576 32.5262C10.5576 30.2806 12.3846 28.4536 14.6303 28.4536C16.8759 28.4536 18.7029 30.2806 18.7029 32.5262C18.703 34.7719 16.876 36.5989 14.6303 36.5989ZM38.7433 29.5846H19.7964C18.771 27.791 16.8401 26.5786 14.6303 26.5786C12.4204 26.5786 10.4896 27.791 9.46425 29.5846H2.60613C2.5705 29.5846 2.54163 29.5557 2.54163 29.5201V24.4455H38.7433V29.5846ZM51.5039 10.4174L53.3726 15.5565H51.3596L49.4909 10.4174H51.5039ZM40.6183 6.40925H49.2993C49.7461 6.40925 50.1489 6.69137 50.3016 7.11125L50.822 8.54225H40.6183V6.40925ZM40.6183 10.4174H47.4958L49.3645 15.5565H40.6183V10.4174ZM54.711 36.5989C52.4654 36.5989 50.6384 34.7719 50.6384 32.5262C50.6384 30.2806 52.4654 28.4536 54.711 28.4536C56.9566 28.4536 58.7836 30.2806 58.7836 32.5262C58.7836 34.7719 56.9566 36.5989 54.711 36.5989ZM62.7916 22.5704H61.7251C61.2074 22.5704 60.7876 22.9901 60.7876 23.5079C60.7876 24.0256 61.2074 24.4454 61.7251 24.4454H62.7916V26.6601C62.7916 27.4489 62.3535 28.1577 61.6483 28.5105L59.7924 29.4384C58.7474 27.725 56.8606 26.5786 54.711 26.5786C52.5011 26.5786 50.5704 27.791 49.545 29.5846H40.6183V24.4455H57.7171C58.2349 24.4455 58.6546 24.0257 58.6546 23.508C58.6546 22.9902 58.2349 22.5705 57.7171 22.5705H40.6183V17.4314H54.5589L62.0624 19.9325C62.4986 20.0779 62.7916 20.4845 62.7916 20.9442V22.5704Z"
     fill="#6E2717"
     id="path3"
     style="fill:#000000;fill-opacity:1" />
  <path
     d="M32.1298 11.6718L25.1157 7.66382C24.6663 7.40695 24.0936 7.5632 23.8366 8.0127C23.5797 8.46232 23.7358 9.03495 24.1855 9.29182L28.1345 11.5484H9.62033C9.10258 11.5484 8.68283 11.9682 8.68283 12.4859C8.68283 13.0037 9.10258 13.4233 9.62033 13.4233H28.1345L24.1855 15.6799C23.736 15.9368 23.5797 16.5094 23.8366 16.9591C24.0096 17.2618 24.326 17.4316 24.6515 17.4316C24.8092 17.4316 24.9691 17.3917 25.1157 17.3078L32.1298 13.2998C32.4218 13.1329 32.6022 12.8223 32.6022 12.4858C32.6022 12.1493 32.422 11.8388 32.1298 11.6718Z"
     fill="#6E2717"
     id="path4"
     style="fill:#000000;fill-opacity:1" />
</svg>
