<?xml version="1.0" encoding="UTF-8" standalone="no"?>
<svg
   svg:contrastcolor="ffe0b6"
   svg:template="InvertedHex1"
   svg:presentation="2.5"
   svg:layouttype="undefined"
   svg:specialfontid="undefined"
   svg:id1="563"
   svg:id2="164"
   svg:companyname="izi MOD"
   svg:companytagline="VOTRE marketplace"
   version="1.1"
   viewBox="0 0 346.99594 242"
   class="svg-drawing"
   id="svg26"
   sodipodi:docname="logoBlueSlogan.svg"
   width="346.99594"
   height="242"
   inkscape:version="1.3 (0e150ed, 2023-07-21)"
   xmlns:inkscape="http://www.inkscape.org/namespaces/inkscape"
   xmlns:sodipodi="http://sodipodi.sourceforge.net/DTD/sodipodi-0.dtd"
   xmlns:xlink="http://www.w3.org/1999/xlink"
   xmlns="http://www.w3.org/2000/svg"
   xmlns:svg="http://www.w3.org/2000/svg">
  <defs
     id="defs26">
    <linearGradient
       id="linearGradient3"
       inkscape:collect="always">
      <stop
         style="stop-color:#121f6b;stop-opacity:1;"
         offset="0"
         id="stop3" />
      <stop
         style="stop-color:#0056b3;stop-opacity:0;"
         offset="1"
         id="stop4" />
    </linearGradient>
    <linearGradient
       inkscape:collect="always"
       xlink:href="#linearGradient3"
       id="linearGradient4"
       x1="193.91808"
       y1="235.00001"
       x2="448.99797"
       y2="235.00001"
       gradientUnits="userSpaceOnUse" />
  </defs>
  <sodipodi:namedview
     id="namedview26"
     pagecolor="#505050"
     bordercolor="#eeeeee"
     borderopacity="1"
     inkscape:showpageshadow="0"
     inkscape:pageopacity="0"
     inkscape:pagecheckerboard="0"
     inkscape:deskcolor="#505050"
     inkscape:zoom="2.9562397"
     inkscape:cx="175.56087"
     inkscape:cy="119.07018"
     inkscape:window-width="1312"
     inkscape:window-height="449"
     inkscape:window-x="0"
     inkscape:window-y="25"
     inkscape:window-maximized="0"
     inkscape:current-layer="svg26" />
  <g
     fill="#ff9e1b"
     fill-rule="none"
     stroke="none"
     stroke-width="1"
     stroke-linecap="butt"
     stroke-linejoin="miter"
     stroke-miterlimit="10"
     stroke-dasharray="none"
     stroke-dashoffset="0"
     font-family="none"
     font-weight="none"
     font-size="none"
     text-anchor="none"
     style="mix-blend-mode:normal;fill:#0056b3;fill-opacity:1"
     id="g26"
     transform="translate(-102.00203,-114.00001)">
    <g
       data-paper-data="{&quot;isGlobalGroup&quot;:true,&quot;bounds&quot;:{&quot;x&quot;:102.00202517810501,&quot;y&quot;:115,&quot;width&quot;:345.99594964379,&quot;height&quot;:240}}"
       style="fill:#0056b3;fill-opacity:1"
       id="g25">
      <g
         data-paper-data="{&quot;textHeightFactor&quot;:0.6179567167089097,&quot;isSecondaryText&quot;:true}"
         fill-rule="nonzero"
         style="fill:#0056b3;fill-opacity:1"
         id="g17">
        <path
           d="m 317.58482,311.46056 h 0.68205 l 1.63485,4.80174 1.63143,-4.80174 h 0.68205 l -1.91932,5.32613 h -0.79515 z"
           data-paper-data="{&quot;glyphName&quot;:&quot;V&quot;,&quot;glyphIndex&quot;:0,&quot;firstGlyphOfWord&quot;:true,&quot;word&quot;:1}"
           style="fill:#0056b3;fill-opacity:1"
           id="path1" />
        <path
           d="m 324.16079,314.14761 c 0,-0.43185 0.0611,-0.81686 0.18336,-1.15502 0.12224,-0.33817 0.29418,-0.62492 0.51582,-0.86027 0.4547,-0.47983 1.05563,-0.71975 1.80279,-0.71975 0.78829,0 1.39151,0.23992 1.80965,0.71975 0.41357,0.47298 0.62035,1.14474 0.62035,2.01529 0,0.8477 -0.23306,1.51375 -0.69918,1.99815 -0.4547,0.47298 -1.05677,0.70946 -1.80622,0.70946 -0.75174,0 -1.34353,-0.23649 -1.77538,-0.70946 -0.43413,-0.47755 -0.6512,-1.1436 -0.6512,-1.99815 z m 0.61007,0.007 c -0.002,0.35416 0.0388,0.66777 0.12339,0.94081 0.0845,0.27305 0.20793,0.50097 0.37016,0.68376 0.32674,0.36787 0.78372,0.54724 1.37095,0.5381 0.57808,-0.005 1.03049,-0.19307 1.35724,-0.56552 0.33817,-0.38615 0.50268,-0.93339 0.49354,-1.64171 -0.0183,-1.43949 -0.6512,-2.15924 -1.89876,-2.15924 -0.56894,0 -1.01222,0.19193 -1.32982,0.5758 -0.31989,0.38615 -0.48212,0.92882 -0.48669,1.628 z"
           data-paper-data="{&quot;glyphName&quot;:&quot;O&quot;,&quot;glyphIndex&quot;:1,&quot;word&quot;:1}"
           style="fill:#0056b3;fill-opacity:1"
           id="path2" />
        <path
           d="m 333.35527,316.78668 v -4.77775 h -1.75481 v -0.54838 h 4.07856 v 0.54838 h -1.72739 v 4.77775 z"
           data-paper-data="{&quot;glyphName&quot;:&quot;T&quot;,&quot;glyphIndex&quot;:2,&quot;word&quot;:1}"
           style="fill:#0056b3;fill-opacity:1"
           id="path3" />
        <path
           d="m 340.19857,314.81595 c -0.0708,0.009 -0.17708,0.0137 -0.31874,0.0137 h -0.77801 v 1.95703 h -0.59293 v -5.32613 h 1.44978 c 1.05563,-0.0137 1.68626,0.31989 1.89191,1.00079 0.064,0.2125 0.0948,0.44784 0.0925,0.70604 -0.0183,0.41128 -0.11767,0.74602 -0.29818,1.00422 -0.18051,0.25819 -0.45584,0.44213 -0.826,0.55181 l 0.14395,0.23306 c 0.0708,0.10968 0.15423,0.23306 0.2502,0.37016 l 0.88769,1.15845 -0.61007,0.37016 c -0.11653,-0.21021 -0.2422,-0.42157 -0.37701,-0.63406 l -0.65805,-1.02478 c -0.08,-0.12567 -0.16566,-0.25248 -0.25705,-0.38044 z m -0.31874,-0.50725 c 0.71289,0.007 1.16073,-0.19993 1.34353,-0.62035 0.064,-0.14623 0.0988,-0.31817 0.10453,-0.51582 0.006,-0.19764 -0.0149,-0.36958 -0.0617,-0.51582 -0.0468,-0.14623 -0.1251,-0.26848 -0.23477,-0.36673 -0.22164,-0.20564 -0.57922,-0.30618 -1.07277,-0.30161 h -0.85684 v 2.32033 z"
           data-paper-data="{&quot;glyphName&quot;:&quot;R&quot;,&quot;glyphIndex&quot;:3,&quot;word&quot;:1}"
           style="fill:#0056b3;fill-opacity:1"
           id="path4" />
        <path
           d="m 344.64958,311.46056 h 3.04007 l -0.0308,0.54838 h -2.41629 v 1.78223 h 2.16267 v 0.54152 h -2.16267 v 1.90904 h 2.48141 l 0.0308,0.54495 h -3.10519 z"
           data-paper-data="{&quot;glyphName&quot;:&quot;E&quot;,&quot;glyphIndex&quot;:4,&quot;lastGlyphOfWord&quot;:true,&quot;word&quot;:1}"
           style="fill:#0056b3;fill-opacity:1"
           id="path5" />
        <path
           d="m 353.97658,316.78668 0.003,-1.16188 c 0,-0.98708 -0.003,-1.61657 -0.0103,-1.88848 l -0.0137,-0.54152 c -0.007,-0.21021 -0.0137,-0.33474 -0.0206,-0.37358 l 0.58951,-0.0308 c -0.002,0.0274 -0.004,0.0634 -0.005,0.10796 -0.001,0.0446 -0.002,0.1 -0.002,0.16623 v 0.25705 l 0.26048,-0.18508 c 0.34502,-0.2422 0.67462,-0.3633 0.98879,-0.3633 0.31418,0 0.56437,0.0485 0.75059,0.14566 0.18622,0.0971 0.32503,0.24848 0.41642,0.45413 0.0297,-0.0183 0.1171,-0.0783 0.26219,-0.17994 0.14509,-0.10168 0.26905,-0.17879 0.37187,-0.23135 0.2422,-0.12567 0.47755,-0.18851 0.70604,-0.18851 0.43413,0 0.75516,0.1 0.96309,0.29989 0.20793,0.19993 0.3176,0.51696 0.32903,0.95109 v 2.76246 h -0.58265 v -2.55339 c 0,-0.35188 -0.0514,-0.5975 -0.15423,-0.73688 -0.10282,-0.13709 -0.2799,-0.20564 -0.53124,-0.20564 -0.22392,0 -0.40843,0.0286 -0.55352,0.0857 -0.14509,0.0571 -0.26791,0.11425 -0.36844,0.17137 l -0.32903,0.19536 -0.0103,0.007 c 0.016,0.0754 0.024,0.1668 0.024,0.27419 v 2.76246 H 356.482 v -2.55339 c 0,-0.34959 -0.0514,-0.59522 -0.15423,-0.73688 -0.0983,-0.13709 -0.27419,-0.20564 -0.52781,-0.20564 -0.22392,0 -0.40843,0.0286 -0.55352,0.0857 -0.14509,0.0571 -0.26791,0.11425 -0.36844,0.17137 l -0.32903,0.19536 0.007,0.31189 c 0.005,0.17365 0.007,0.34959 0.007,0.52781 v 2.2038 z"
           data-paper-data="{&quot;glyphName&quot;:&quot;m&quot;,&quot;glyphIndex&quot;:5,&quot;firstGlyphOfWord&quot;:true,&quot;word&quot;:2}"
           style="fill:#0056b3;fill-opacity:1"
           id="path6" />
        <path
           d="m 365.392,316.81753 c -0.0754,0.0251 -0.16908,0.0377 -0.28104,0.0377 -0.11196,0 -0.20393,-0.0126 -0.2759,-0.0377 -0.072,-0.0251 -0.13424,-0.0605 -0.18679,-0.10625 -0.10282,-0.0868 -0.16908,-0.20221 -0.19879,-0.34616 -0.12339,0.18965 -0.34502,0.3336 -0.66491,0.43185 -0.2879,0.0891 -0.57808,0.0834 -0.87055,-0.0171 -0.31532,-0.10511 -0.54267,-0.29818 -0.68205,-0.57922 -0.0708,-0.14166 -0.10625,-0.29761 -0.10625,-0.46784 0,-0.17023 0.0331,-0.31418 0.0994,-0.43185 0.0663,-0.11767 0.15423,-0.21421 0.26391,-0.28961 0.20564,-0.14395 0.48097,-0.23078 0.826,-0.26048 0.27647,-0.0274 0.63406,-0.0468 1.07277,-0.0583 v -0.61693 c 0,-0.29018 -0.0166,-0.47183 -0.0497,-0.54495 -0.0331,-0.0731 -0.0726,-0.12795 -0.11824,-0.16451 -0.0777,-0.0594 -0.23535,-0.0891 -0.47298,-0.0891 l -0.13024,0.003 c -0.35645,0.0183 -0.70261,0.0765 -1.03849,0.1748 l -0.096,-0.50725 c 0.39986,-0.11653 0.79286,-0.1748 1.17901,-0.1748 0.55066,0 0.91168,0.10396 1.08305,0.31189 0.10282,0.12567 0.16451,0.2799 0.18508,0.46269 0.0206,0.18279 0.032,0.35188 0.0343,0.50725 v 1.95703 c 0,0.19422 0.0177,0.31018 0.0531,0.34788 0.0354,0.0377 0.0765,0.0566 0.12339,0.0566 0.0468,0 0.11824,-0.008 0.21421,-0.024 z m -1.00422,-1.28526 c 0,-0.16223 0.005,-0.31189 0.0137,-0.44898 -0.802,0 -1.30697,0.0765 -1.5149,0.22963 -0.11653,0.0823 -0.1748,0.21021 -0.1748,0.38386 0,0.19879 0.0674,0.36102 0.20221,0.48669 0.13024,0.1211 0.30047,0.18165 0.51068,0.18165 0.40443,0.0114 0.72546,-0.11539 0.96309,-0.38044 z"
           data-paper-data="{&quot;glyphName&quot;:&quot;a&quot;,&quot;glyphIndex&quot;:6,&quot;word&quot;:2}"
           style="fill:#0056b3;fill-opacity:1"
           id="path7" />
        <path
           d="m 368.58858,314.24358 c 0.009,0.17365 0.0137,0.393 0.0137,0.65805 v 1.88505 h -0.57922 c 0,-2.42429 -0.0137,-3.74611 -0.0411,-3.96546 l 0.56894,-0.048 v 0.96309 c 0.30389,-0.64206 0.71175,-0.96309 1.22357,-0.96309 0.17594,0 0.32103,0.0137 0.43528,0.0411 l -0.12681,0.61007 c -0.10968,-0.0548 -0.23249,-0.0828 -0.36844,-0.084 -0.13595,-0.001 -0.25991,0.0291 -0.37187,0.0908 -0.11196,0.0617 -0.21421,0.13824 -0.30675,0.22963 -0.0925,0.0914 -0.17537,0.18965 -0.24848,0.29475 z"
           data-paper-data="{&quot;glyphName&quot;:&quot;r&quot;,&quot;glyphIndex&quot;:7,&quot;word&quot;:2}"
           style="fill:#0056b3;fill-opacity:1"
           id="path8" />
        <path
           d="m 372.40895,316.78668 c 0,0 -0.003,-1.60972 -0.0103,-4.82916 -0.005,-0.41128 -0.008,-0.65234 -0.0103,-0.72317 l 0.60322,-0.048 0.007,3.22172 v 2.37859 z m 1.91247,-0.802 -0.98708,-1.19615 c -0.08,-0.0937 -0.13367,-0.15994 -0.16109,-0.19879 l 1.57659,-1.76852 h 0.76088 l -1.65542,1.76852 c 0.0114,0.016 0.0343,0.0446 0.0686,0.0857 0.25819,0.30618 0.41928,0.5004 0.48326,0.58265 l 1.1276,1.22014 -0.55866,0.37701 c -0.19879,-0.29018 -0.417,-0.58037 -0.65463,-0.87055 z"
           data-paper-data="{&quot;glyphName&quot;:&quot;k&quot;,&quot;glyphIndex&quot;:8,&quot;word&quot;:2}"
           style="fill:#0056b3;fill-opacity:1"
           id="path9" />
        <path
           d="m 380.55123,316.66672 c -0.33588,0.12567 -0.67176,0.18851 -1.00765,0.18851 -0.68547,0 -1.18016,-0.20793 -1.48405,-0.62378 -0.24906,-0.33588 -0.37358,-0.82143 -0.37358,-1.45663 0,-0.63521 0.14224,-1.12646 0.42671,-1.47377 0.28447,-0.34731 0.70318,-0.52324 1.25613,-0.52781 0.51639,0 0.90482,0.19307 1.1653,0.57922 0.23763,0.34959 0.35645,0.84313 0.35645,1.48062 v 0.12339 h -2.60137 c 0.0388,0.72889 0.2879,1.16987 0.74717,1.32296 0.14166,0.0457 0.32731,0.0686 0.55695,0.0686 0.22963,0 0.51125,-0.0628 0.84485,-0.18851 z m -0.27761,-2.17295 c -0.0274,-0.39529 -0.0983,-0.69004 -0.2125,-0.88426 -0.19879,-0.32674 -0.54381,-0.42385 -1.03506,-0.29133 -0.2719,0.0708 -0.47526,0.24906 -0.61007,0.53467 -0.08,0.16908 -0.12224,0.38272 -0.12681,0.64092 z"
           data-paper-data="{&quot;glyphName&quot;:&quot;e&quot;,&quot;glyphIndex&quot;:9,&quot;word&quot;:2}"
           style="fill:#0056b3;fill-opacity:1"
           id="path10" />
        <path
           d="m 385.58489,316.66672 c -0.32674,0.12567 -0.6512,0.18851 -0.97337,0.18851 -0.3176,-0.005 -0.54952,-0.0743 -0.69576,-0.20907 -0.16451,-0.1508 -0.24677,-0.401 -0.24677,-0.75059 0,-0.0229 0,-0.0457 0,-0.0686 0,-0.0229 10e-4,-0.0468 0.003,-0.072 l 0.0171,-2.45057 h -0.64434 l 0.0171,-0.48326 h 0.6512 c 0,-0.38158 -0.0137,-0.65463 -0.0411,-0.81914 l 0.58951,-0.096 0.024,0.91511 h 1.08305 v 0.48326 h -1.09333 l -0.0137,2.41287 c -0.009,0.23078 0.0114,0.38272 0.0617,0.45584 0.0503,0.0731 0.10682,0.11939 0.16965,0.13881 0.0628,0.0194 0.16451,0.0291 0.30504,0.0291 0.14052,0 0.36844,-0.0525 0.68376,-0.15766 z"
           data-paper-data="{&quot;glyphName&quot;:&quot;t&quot;,&quot;glyphIndex&quot;:10,&quot;word&quot;:2}"
           style="fill:#0056b3;fill-opacity:1"
           id="path11" />
        <path
           d="m 389.47381,316.85866 c -0.30389,0 -0.63406,-0.08 -0.99051,-0.23992 v 1.80965 h -0.58951 c 0,-3.3154 -0.0103,-5.18446 -0.0309,-5.60717 l 0.56894,-0.048 v 0.61007 c 0.38386,-0.39529 0.79972,-0.59865 1.24756,-0.61007 0.7266,-0.016 1.20186,0.33474 1.42578,1.0522 0.0891,0.28333 0.13367,0.58551 0.13367,0.90654 0,0.32103 -0.0337,0.60893 -0.10111,0.8637 -0.0674,0.25477 -0.16965,0.47583 -0.30675,0.6632 -0.29704,0.39986 -0.7266,0.59979 -1.28869,0.59979 -0.0229,0 -0.0457,0 -0.0686,0 z m -1.01108,-2.99895 0.0206,0.802 v 1.46006 c 0.2879,0.11653 0.49354,0.18394 0.61693,0.20221 0.39072,0.0571 0.67633,0.0417 0.85684,-0.0463 0.18051,-0.088 0.31874,-0.20393 0.41471,-0.34788 0.17822,-0.26733 0.26505,-0.65348 0.26048,-1.15845 -0.007,-0.70375 -0.17137,-1.16302 -0.49354,-1.3778 -0.11653,-0.0777 -0.25134,-0.11539 -0.40443,-0.1131 -0.15309,0.002 -0.28447,0.0183 -0.39415,0.048 -0.10968,0.0297 -0.20964,0.0651 -0.29989,0.10625 -0.0902,0.0411 -0.17023,0.0863 -0.23992,0.13538 -0.0697,0.0491 -0.1291,0.0942 -0.17822,0.13538 -0.0491,0.0411 -0.0874,0.0765 -0.11482,0.10625 -0.0274,0.0297 -0.0423,0.0457 -0.0446,0.048 z"
           data-paper-data="{&quot;glyphName&quot;:&quot;p&quot;,&quot;glyphIndex&quot;:11,&quot;word&quot;:2}"
           style="fill:#0056b3;fill-opacity:1"
           id="path12" />
        <path
           d="m 394.60686,315.71734 c -0.0137,0.24906 0.0194,0.41414 0.0994,0.49525 0.08,0.0811 0.19479,0.12167 0.34445,0.12167 0.14966,0 0.36616,-0.0388 0.64949,-0.11653 l 0.10968,0.5004 c -0.30161,0.0823 -0.54209,0.12624 -0.72146,0.13195 -0.17937,0.006 -0.33303,-0.007 -0.46098,-0.0377 -0.12795,-0.0309 -0.23763,-0.0874 -0.32903,-0.16965 -0.1965,-0.17594 -0.29018,-0.47183 -0.28104,-0.88769 l 0.007,-4.5207 0.58951,-0.048 z"
           data-paper-data="{&quot;glyphName&quot;:&quot;l&quot;,&quot;glyphIndex&quot;:12,&quot;word&quot;:2}"
           style="fill:#0056b3;fill-opacity:1"
           id="path13" />
        <path
           d="m 400.85038,316.81753 c -0.0754,0.0251 -0.16908,0.0377 -0.28104,0.0377 -0.11196,0 -0.20393,-0.0126 -0.2759,-0.0377 -0.072,-0.0251 -0.13424,-0.0605 -0.18679,-0.10625 -0.10282,-0.0868 -0.16908,-0.20221 -0.19879,-0.34616 -0.12339,0.18965 -0.34502,0.3336 -0.66491,0.43185 -0.2879,0.0891 -0.57808,0.0834 -0.87055,-0.0171 -0.31532,-0.10511 -0.54267,-0.29818 -0.68205,-0.57922 -0.0708,-0.14166 -0.10625,-0.29761 -0.10625,-0.46784 0,-0.17023 0.0331,-0.31418 0.0994,-0.43185 0.0663,-0.11767 0.15423,-0.21421 0.26391,-0.28961 0.20564,-0.14395 0.48097,-0.23078 0.826,-0.26048 0.27647,-0.0274 0.63406,-0.0468 1.07277,-0.0583 v -0.61693 c 0,-0.29018 -0.0166,-0.47183 -0.0497,-0.54495 -0.0331,-0.0731 -0.0725,-0.12795 -0.11824,-0.16451 -0.0777,-0.0594 -0.23535,-0.0891 -0.47298,-0.0891 l -0.13024,0.003 c -0.35645,0.0183 -0.70261,0.0765 -1.03849,0.1748 l -0.096,-0.50725 c 0.39986,-0.11653 0.79286,-0.1748 1.17901,-0.1748 0.55066,0 0.91168,0.10396 1.08305,0.31189 0.10282,0.12567 0.16451,0.2799 0.18508,0.46269 0.0206,0.18279 0.032,0.35188 0.0343,0.50725 v 1.95703 c 0,0.19422 0.0177,0.31018 0.0531,0.34788 0.0354,0.0377 0.0765,0.0566 0.12339,0.0566 0.0468,0 0.11824,-0.008 0.21421,-0.024 z m -1.00422,-1.28526 c 0,-0.16223 0.005,-0.31189 0.0137,-0.44898 -0.802,0 -1.30697,0.0765 -1.5149,0.22963 -0.11653,0.0823 -0.1748,0.21021 -0.1748,0.38386 0,0.19879 0.0674,0.36102 0.20221,0.48669 0.13024,0.1211 0.30047,0.18165 0.51068,0.18165 0.40443,0.0114 0.72546,-0.11539 0.96309,-0.38044 z"
           data-paper-data="{&quot;glyphName&quot;:&quot;a&quot;,&quot;glyphIndex&quot;:13,&quot;word&quot;:2}"
           style="fill:#0056b3;fill-opacity:1"
           id="path14" />
        <path
           d="m 406.06568,316.66672 c -0.32903,0.12567 -0.66205,0.18851 -0.99908,0.18851 -0.33702,0 -0.61693,-0.0388 -0.8397,-0.11653 -0.22278,-0.0777 -0.41414,-0.19879 -0.57408,-0.3633 -0.3336,-0.34731 -0.5004,-0.86598 -0.5004,-1.55602 0,-1.36638 0.58494,-2.04956 1.75481,-2.04956 l 0.11996,0.003 c 0.29932,0.0114 0.51353,0.04 0.64263,0.0857 0.1291,0.0457 0.22335,0.0811 0.28276,0.10625 l -0.13024,0.50725 c -0.2879,-0.13024 -0.57922,-0.19536 -0.87398,-0.19536 h -0.0583 c -0.74945,0 -1.12418,0.51182 -1.12418,1.53546 0,0.54152 0.12339,0.94367 0.37016,1.20643 0.20564,0.21935 0.48383,0.32903 0.83456,0.32903 0.35073,0 0.68604,-0.0628 1.00593,-0.18851 z"
           data-paper-data="{&quot;glyphName&quot;:&quot;c&quot;,&quot;glyphIndex&quot;:14,&quot;word&quot;:2}"
           style="fill:#0056b3;fill-opacity:1"
           id="path15" />
        <path
           d="m 411.02737,316.66672 c -0.33588,0.12567 -0.67176,0.18851 -1.00765,0.18851 -0.68547,0 -1.18016,-0.20793 -1.48405,-0.62378 -0.24906,-0.33588 -0.37358,-0.82143 -0.37358,-1.45663 0,-0.63521 0.14224,-1.12646 0.42671,-1.47377 0.28447,-0.34731 0.70318,-0.52324 1.25613,-0.52781 0.51639,0 0.90482,0.19307 1.1653,0.57922 0.23763,0.34959 0.35645,0.84313 0.35645,1.48062 v 0.12339 h -2.60137 c 0.0388,0.72889 0.2879,1.16987 0.74717,1.32296 0.14166,0.0457 0.32731,0.0686 0.55695,0.0686 0.22963,0 0.51125,-0.0628 0.84485,-0.18851 z m -0.27762,-2.17295 c -0.0274,-0.39529 -0.0983,-0.69004 -0.2125,-0.88426 -0.19879,-0.32674 -0.54381,-0.42385 -1.03506,-0.29133 -0.2719,0.0708 -0.47526,0.24906 -0.61007,0.53467 -0.08,0.16908 -0.12224,0.38272 -0.12681,0.64092 z"
           data-paper-data="{&quot;glyphName&quot;:&quot;e&quot;,&quot;glyphIndex&quot;:15,&quot;lastGlyphOfWord&quot;:true,&quot;word&quot;:2}"
           style="fill:#0056b3;fill-opacity:1"
           id="path16" />
        <path
           d="m 317.58482,307.10437 v -0.39529 h 93.78186 v 0.39529 z"
           data-paper-data="{&quot;isContainerTopLineAboveSecondaryText&quot;:true}"
           style="fill:#0056b3;fill-opacity:1"
           id="path17" />
      </g>
      <g
         data-paper-data="{&quot;stacked&quot;:true,&quot;isPrimaryText&quot;:true}"
         style="fill:#0056b3;fill-opacity:1"
         id="g23">
        <path
           d="m 318.90635,152.5576 c -0.88102,0.88103 -1.32154,1.94212 -1.32154,3.18326 v 81.0865 c 0,1.24116 0.44051,2.30225 1.32154,3.18327 0.88102,0.88102 1.94211,1.32153 3.18327,1.32153 h 6.14292 c 1.24114,0 2.30223,-0.44051 3.18326,-1.32153 0.88103,-0.88102 1.32155,-1.94211 1.32155,-3.18327 v -81.0865 c 0,-1.24114 -0.44052,-2.30223 -1.32155,-3.18326 -0.88103,-0.88103 -1.94212,-1.32155 -3.18326,-1.32155 h -6.14292 c -1.24116,0 -2.30225,0.44052 -3.18327,1.32155 z m 2.77374,84.26976 v -81.0865 c 0,-0.27302 0.13651,-0.40953 0.40953,-0.40953 h 6.14292 c 0.27302,0 0.40953,0.13651 0.40953,0.40953 v 81.0865 c 0,0.27302 -0.13651,0.40953 -0.40953,0.40953 h -6.14292 c -0.27302,0 -0.40953,-0.13651 -0.40953,-0.40953 z"
           data-paper-data="{&quot;glyphName&quot;:&quot;i&quot;,&quot;glyphIndex&quot;:0,&quot;firstGlyphOfWord&quot;:true,&quot;word&quot;:1,&quot;fontStyleEffect&quot;:true,&quot;line&quot;:1,&quot;firstGlyphOfFirstLine&quot;:true}"
           fill-rule="evenodd"
           style="fill:#0056b3;fill-opacity:1"
           id="path18" />
        <path
           d="m 340.9279,236.82736 c 0,3.0032 1.5016,4.50481 4.50481,4.50481 h 38.08608 c 3.0032,0 4.50481,-1.5016 4.50481,-4.50481 v -6.14292 c 0,-3.0032 -1.5016,-4.50481 -4.50481,-4.50481 h -24.97362 l 28.90816,-60.21533 c 0.0198,-0.0413 0.0382,-0.0832 0.0553,-0.12573 0.34332,-0.85844 0.51498,-1.60337 0.51498,-2.23479 v -7.86293 c 0,-3.0032 -1.5016,-4.50481 -4.50481,-4.50481 h -38.08608 c -3.0032,0 -4.50481,1.5016 -4.50481,4.50481 v 6.14292 c 0,3.0032 1.5016,4.50481 4.50481,4.50481 h 24.97362 l -28.90816,60.21533 c -0.0198,0.0413 -0.0382,0.0832 -0.0553,0.12573 -0.34332,0.85837 -0.51498,1.6033 -0.51498,2.23479 z m 42.59089,0.40953 h -38.08608 c -0.27302,0 -0.40953,-0.13651 -0.40953,-0.40953 v -7.86293 c 0,-0.0997 0.0659,-0.31725 0.1978,-0.65258 l 29.57794,-61.61038 c 0.0126,-0.0263 0.0247,-0.0528 0.0361,-0.0796 0.4558,-1.06348 0.427,-2.0316 -0.0864,-2.90437 -0.55846,-0.94942 -1.44369,-1.42413 -2.65569,-1.42413 H 345.4327 c -0.27302,0 -0.40953,-0.13651 -0.40953,-0.40953 v -6.14292 c 0,-0.27302 0.13651,-0.40953 0.40953,-0.40953 h 38.08608 c 0.27302,0 0.40953,0.13651 0.40953,0.40953 v 7.86293 c 0,0.0997 -0.0659,0.31721 -0.1978,0.65248 l -29.57794,61.61048 c -0.0126,0.0263 -0.0247,0.0528 -0.0361,0.0796 -0.4558,1.06348 -0.427,2.0316 0.0864,2.90437 0.55846,0.94942 1.44369,1.42413 2.65569,1.42413 h 26.66026 c 0.27302,0 0.40953,0.13651 0.40953,0.40953 v 6.14292 c 0,0.27302 -0.13651,0.40953 -0.40953,0.40953 z"
           data-paper-data="{&quot;glyphName&quot;:&quot;z&quot;,&quot;glyphIndex&quot;:1,&quot;word&quot;:1,&quot;fontStyleEffect&quot;:true,&quot;line&quot;:1}"
           fill-rule="evenodd"
           style="fill:#0056b3;fill-opacity:1"
           id="path19" />
        <path
           d="m 397.53569,152.5576 c -0.88103,0.88103 -1.32155,1.94212 -1.32155,3.18326 v 81.0865 c 0,1.24116 0.44052,2.30225 1.32155,3.18327 0.88103,0.88102 1.94212,1.32153 3.18326,1.32153 h 6.14292 c 1.24114,0 2.30223,-0.44051 3.18326,-1.32153 0.88103,-0.88102 1.32155,-1.94211 1.32155,-3.18327 v -81.0865 c 0,-1.24114 -0.44052,-2.30223 -1.32155,-3.18326 -0.88103,-0.88103 -1.94212,-1.32155 -3.18326,-1.32155 h -6.14292 c -1.24114,0 -2.30223,0.44052 -3.18326,1.32155 z m 2.77374,84.26976 v -81.0865 c 0,-0.27302 0.13651,-0.40953 0.40953,-0.40953 h 6.14292 c 0.27302,0 0.40953,0.13651 0.40953,0.40953 v 81.0865 c 0,0.27302 -0.13651,0.40953 -0.40953,0.40953 h -6.14292 c -0.27302,0 -0.40953,-0.13651 -0.40953,-0.40953 z"
           data-paper-data="{&quot;glyphName&quot;:&quot;i&quot;,&quot;glyphIndex&quot;:2,&quot;lastGlyphOfWord&quot;:true,&quot;word&quot;:1,&quot;fontStyleEffect&quot;:true,&quot;line&quot;:1,&quot;lastGlyphOfFirstLine&quot;:true}"
           fill-rule="evenodd"
           style="fill:#0056b3;fill-opacity:1"
           id="path20" />
        <path
           d="m 317.58482,300.51812 c 0,0.88345 0.47571,1.35916 1.35916,1.35916 h 3.39789 c 0.88345,0 1.35916,-0.47571 1.35916,-1.35916 v -22.9018 c 0,-0.61162 0.54366,-0.74754 0.74754,-0.13592 l 5.98029,16.51376 c 0.27183,0.74754 0.81549,1.08733 1.56303,1.08733 h 4.41726 c 0.74754,0 1.2912,-0.33979 1.56303,-1.08733 l 6.04825,-16.64968 c 0.20387,-0.61162 0.74754,-0.47571 0.74754,0.13592 v 23.03772 c 0,0.88345 0.47571,1.35916 1.35916,1.35916 h 3.39789 c 0.88345,0 1.35916,-0.47571 1.35916,-1.35916 v -44.85219 c 0,-0.88345 -0.47571,-1.35916 -1.35916,-1.35916 h -3.60177 c -0.74754,0 -1.35916,0.40775 -1.56303,1.08733 l -9.71798,29.62963 c -0.20387,0.54366 -0.67958,0.54366 -0.88345,0 l -9.58206,-29.62963 c -0.20387,-0.67958 -0.81549,-1.08733 -1.56303,-1.08733 h -3.66972 c -0.88345,0 -1.35916,0.47571 -1.35916,1.35916 z"
           data-paper-data="{&quot;glyphName&quot;:&quot;m&quot;,&quot;glyphIndex&quot;:3,&quot;firstGlyphOfWord&quot;:true,&quot;word&quot;:2,&quot;line&quot;:2,&quot;firstGlyphOfSecondLine&quot;:true}"
           fill-rule="nonzero"
           style="fill:#0056b3;fill-opacity:1"
           id="path21" />
        <path
           d="m 358.35954,297.18819 v 3.39789 c 0,0.88345 0.47571,1.35916 1.35916,1.35916 h 21.06694 c 0.88345,0 1.35916,-0.47571 1.35916,-1.35916 v -3.39789 c 0,-0.88345 -0.47571,-1.35916 -1.35916,-1.35916 H 359.7187 c -0.88345,0 -1.35916,0.47571 -1.35916,1.35916 z m 6.9317,-7.61128 h 9.92185 c 4.00951,0 6.9317,-2.92219 6.9317,-6.9317 v -21.40673 c 0,-4.00951 -2.92219,-6.9317 -6.9317,-6.9317 h -9.92185 c -4.00951,0 -6.9317,2.92219 -6.9317,6.9317 v 21.40673 c 0,4.00951 2.92219,6.9317 6.9317,6.9317 z m -0.81549,-7.47537 v -20.3194 c 0,-0.74754 0.61162,-1.35916 1.35916,-1.35916 h 8.83452 c 0.74754,0 1.35916,0.61162 1.35916,1.35916 v 20.3194 c 0,0.74754 -0.61162,1.35916 -1.35916,1.35916 h -8.83452 c -0.74754,0 -1.35916,-0.61162 -1.35916,-1.35916 z"
           data-paper-data="{&quot;glyphName&quot;:&quot;o&quot;,&quot;glyphIndex&quot;:4,&quot;word&quot;:2,&quot;line&quot;:2}"
           fill-rule="nonzero"
           style="fill:#0056b3;fill-opacity:1"
           id="path22" />
        <path
           d="m 387.58142,297.18819 v 3.39789 c 0,0.88345 0.47571,1.35916 1.35916,1.35916 h 21.06694 c 0.88345,0 1.35916,-0.47571 1.35916,-1.35916 v -3.39789 c 0,-0.88345 -0.47571,-1.35916 -1.35916,-1.35916 h -21.06694 c -0.88345,0 -1.35916,0.47571 -1.35916,1.35916 z m 1.35916,-7.47537 h 15.49439 c 4.00951,0 6.9317,-2.92219 6.9317,-6.9317 v -21.54264 c 0,-4.00951 -2.92219,-6.9317 -6.9317,-6.9317 h -15.49439 c -0.74754,0 -1.35916,0.61162 -1.35916,1.35916 v 32.68774 c 0,0.74754 0.61162,1.35916 1.35916,1.35916 z m 4.75705,-7.47536 v -20.45532 c 0,-0.74754 0.61162,-1.35916 1.35916,-1.35916 h 8.83452 c 0.74754,0 1.35916,0.61162 1.35916,1.35916 v 20.45532 c 0,0.74754 -0.61162,1.35916 -1.35916,1.35916 h -8.83452 c -0.74754,0 -1.35916,-0.61162 -1.35916,-1.35916 z"
           data-paper-data="{&quot;glyphName&quot;:&quot;d&quot;,&quot;glyphIndex&quot;:5,&quot;lastGlyphOfWord&quot;:true,&quot;word&quot;:2,&quot;line&quot;:2,&quot;lastGlyphOfSecondLine&quot;:true}"
           fill-rule="nonzero"
           style="fill:#0056b3;fill-opacity:1"
           id="path23" />
      </g>
      <g
         data-paper-data="{&quot;fillRule&quot;:&quot;evenodd&quot;,&quot;fillRuleOriginal&quot;:&quot;evenodd&quot;,&quot;isIcon&quot;:true,&quot;iconStyle&quot;:&quot;standalone&quot;,&quot;selectedEffects&quot;:{&quot;container&quot;:&quot;&quot;,&quot;transformation&quot;:&quot;&quot;,&quot;pattern&quot;:&quot;&quot;},&quot;bounds&quot;:{&quot;x&quot;:102.00202517810501,&quot;y&quot;:150.90063481092557,&quot;width&quot;:187.01749102144126,&quot;height&quot;:167.86317632947953},&quot;iconType&quot;:&quot;icon&quot;,&quot;isDetailed&quot;:false,&quot;source&quot;:&quot;noun&quot;,&quot;rawIconId&quot;:&quot;3964780&quot;,&quot;suitableAsStandaloneIcon&quot;:true}"
         fill-rule="evenodd"
         style="fill:#0056b3;fill-opacity:1"
         id="g24">
        <path
           d="m 253.07198,153.08025 34.36701,39.76606 c 1.19921,1.36612 1.75677,3.17999 1.53146,4.98374 l -7.19007,53.23772 c -0.19156,1.41102 -0.84957,2.71769 -1.8689,3.71185 l -30.99261,29.82455 c -0.26346,0.27722 -0.55989,0.52148 -0.88254,0.7268 l -49.0327,32.36833 c -1.03361,0.70084 -2.2554,1.07176 -3.50419,1.06423 -1.24152,0.0122 -2.45631,-0.3595 -3.47824,-1.06423 l -49.0327,-32.47215 c -0.33096,-0.20506 -0.63594,-0.44906 -0.90849,-0.7268 l -30.96665,-29.72072 c -1.02738,-0.99182 -1.69421,-2.29797 -1.89486,-3.71185 l -7.16413,-53.23772 c -0.23231,-1.79986 0.31564,-3.61347 1.5055,-4.98374 l 34.39297,-39.76606 c 1.87694,-2.16819 4.98036,-2.79738 7.55348,-1.53146 l 49.99311,24.24381 50.01906,-24.24381 c 2.57441,-1.25658 5.67186,-0.62842 7.55348,1.53146 z m -112.52342,40.38903 40.4669,-10.69427 -35.69082,-17.26138 z m 110.13538,0 -4.77608,-27.95564 -35.76869,17.26138 z m -131.00478,0.36339 13.16018,0.83062 3.40036,-19.98686 z m 152.08183,0 -16.5865,-19.15624 3.42632,19.98686 z m -79.84361,46.61871 v -52.43306 l -0.51914,-0.15574 -47.52719,12.58913 z m 7.94283,-52.58881 -0.33744,0.15574 -0.20765,52.43306 48.04633,-39.99967 z m -69.27913,14.27634 -15.081,-0.96041 3.73781,29.33136 z m 130.07034,0.12978 11.21341,28.24117 3.86759,-29.20158 z m -111.17368,71.25185 39.61032,-25.334 -48.25399,-40.36308 z m 100.68706,-65.69706 -48.27995,40.36308 39.66224,25.334 z m 6.98242,5.94414 -6.82668,51.91392 19.28602,-18.55923 0.15574,-1.14211 z m -123.11386,0.0519 -12.61509,32.21259 0.0779,1.14211 19.33793,18.55923 z m 57.65041,88.43537 v -46.72253 l -35.89847,22.97191 z m 43.52982,-23.75061 -35.92443,-22.97191 0.026,46.77445 z"
           data-paper-data="{&quot;isPathIcon&quot;:true}"
           style="fill:#0056b3;fill-opacity:1"
           id="path24" />
      </g>
      <path
         d="m 194.91808,350.6076 v -21.15123 l 0.39511,0.0401 v 21.11113 c 0,1.10397 0.39008,2.04604 1.17024,2.8262 0.78072,0.78072 1.72279,1.17108 2.8262,1.17108 H 443.6064 c 1.10341,0 2.0452,-0.39036 2.82537,-1.17108 0.78072,-0.78016 1.17108,-1.72223 1.17108,-2.8262 V 119.39208 c 0,-1.10369 -0.39036,-2.04576 -1.17108,-2.8262 -0.78016,-0.78039 -1.72195,-1.17058 -2.82537,-1.17058 H 199.30963 c -1.10341,0 -2.04548,0.39019 -2.8262,1.17058 -0.78016,0.78044 -1.17024,1.72251 -1.17024,2.8262 v 39.11546 l -0.39511,0.0392 v -39.15466 c 0,-1.21286 0.42867,-2.2481 1.28601,-3.10572 0.8579,-0.85756 1.89308,-1.28635 3.10555,-1.28635 h 244.29677 c 1.21247,0 2.24765,0.42878 3.10555,1.28635 0.85734,0.85762 1.28601,1.89286 1.28601,3.10572 v 231.21553 c 0,1.21303 -0.42867,2.24821 -1.28601,3.10555 -0.8579,0.8579 -1.89308,1.28685 -3.10555,1.28685 H 199.30964 c -1.21247,0 -2.24765,-0.42895 -3.10555,-1.28685 -0.85734,-0.85734 -1.28601,-1.89252 -1.28601,-3.10555 z"
         data-paper-data="{&quot;isLogoContainer&quot;:true}"
         fill-rule="nonzero"
         style="fill:#0056b3;fill-opacity:1;stroke:url(#linearGradient4);stroke-width:2;stroke-dasharray:none;stroke-opacity:1"
         id="path25" />
    </g>
  </g>
</svg>
