<?xml version="1.0" encoding="UTF-8" standalone="no"?>
<svg
   svg:contrastcolor="ffe0b6"
   svg:template="InvertedHex1"
   svg:presentation="2.5"
   svg:layouttype="undefined"
   svg:specialfontid="undefined"
   svg:id1="563"
   svg:id2="164"
   svg:companyname="izi MOD"
   svg:companytagline=""
   version="1.1"
   viewBox="0 0 176.76996 158.66519"
   id="svg9"
   sodipodi:docname="iconBlue.svg"
   width="176.76996"
   height="158.66519"
   inkscape:version="1.3 (0e150ed, 2023-07-21)"
   xmlns:inkscape="http://www.inkscape.org/namespaces/inkscape"
   xmlns:sodipodi="http://sodipodi.sourceforge.net/DTD/sodipodi-0.dtd"
   xmlns="http://www.w3.org/2000/svg"
   xmlns:svg="http://www.w3.org/2000/svg">
  <defs
     id="defs9" />
  <sodipodi:namedview
     id="namedview9"
     pagecolor="#505050"
     bordercolor="#eeeeee"
     borderopacity="1"
     inkscape:showpageshadow="0"
     inkscape:pageopacity="0"
     inkscape:pagecheckerboard="0"
     inkscape:deskcolor="#505050"
     inkscape:zoom="2.8623197"
     inkscape:cx="81.751874"
     inkscape:cy="71.620232"
     inkscape:window-width="1312"
     inkscape:window-height="449"
     inkscape:window-x="0"
     inkscape:window-y="25"
     inkscape:window-maximized="0"
     inkscape:current-layer="g9" />
  <g
     fill="#ffffff"
     fill-rule="none"
     stroke="none"
     stroke-width="1"
     stroke-linecap="butt"
     stroke-linejoin="miter"
     stroke-miterlimit="10"
     stroke-dasharray="none"
     stroke-dashoffset="0"
     font-family="none"
     font-weight="none"
     font-size="none"
     text-anchor="none"
     style="mix-blend-mode:normal;fill:#000000;fill-opacity:1"
     id="g9"
     transform="translate(-100.33839,-155.50893)">
    <g
       data-paper-data="{&quot;isGlobalGroup&quot;:true,&quot;bounds&quot;:{&quot;x&quot;:100.33839261151391,&quot;y&quot;:115,&quot;width&quot;:349.32321477697224,&quot;height&quot;:240}}"
       id="g8"
       style="fill:#0056b3;fill-opacity:1">
      <g
         data-paper-data="{&quot;stacked&quot;:true,&quot;isPrimaryText&quot;:true}"
         id="g6"
         style="fill:#0056b3;fill-opacity:1" />
      <g
         data-paper-data="{&quot;fillRule&quot;:&quot;evenodd&quot;,&quot;fillRuleOriginal&quot;:&quot;evenodd&quot;,&quot;isIcon&quot;:true,&quot;iconStyle&quot;:&quot;standalone&quot;,&quot;selectedEffects&quot;:{&quot;container&quot;:&quot;&quot;,&quot;transformation&quot;:&quot;&quot;,&quot;pattern&quot;:&quot;&quot;},&quot;bounds&quot;:{&quot;x&quot;:100.33839261151391,&quot;y&quot;:155.50894196719315,&quot;width&quot;:176.76994945919708,&quot;height&quot;:158.66518705686434},&quot;iconType&quot;:&quot;icon&quot;,&quot;isDetailed&quot;:false,&quot;source&quot;:&quot;noun&quot;,&quot;rawIconId&quot;:&quot;3964780&quot;,&quot;suitableAsStandaloneIcon&quot;:true}"
         fill-rule="evenodd"
         id="g7"
         style="fill:#0056b3;fill-opacity:1">
        <path
           d="m 243.13054,157.56912 32.48389,37.5871 c 1.1335,1.29126 1.66051,3.00574 1.44754,4.71065 l -6.7961,50.32059 c -0.18107,1.3337 -0.80302,2.56878 -1.7665,3.50846 l -29.29438,28.19032 c -0.24902,0.26203 -0.52921,0.49291 -0.83418,0.68697 l -46.34598,30.59472 c -0.97697,0.66244 -2.13182,1.01303 -3.31218,1.00592 -1.1735,0.0115 -2.32171,-0.3398 -3.28765,-1.00592 l -46.34598,-30.69286 c -0.31282,-0.19383 -0.6011,-0.42445 -0.85871,-0.68697 l -29.26985,-28.09219 c -0.97109,-0.93747 -1.60138,-2.17205 -1.79103,-3.50846 l -6.77157,-50.32059 c -0.21958,-1.70123 0.29834,-3.41547 1.42301,-4.71065 l 32.50842,-37.5871 c 1.7741,-2.04938 4.70746,-2.6441 7.13959,-1.44754 l 47.25376,22.91538 47.27829,-22.91538 c 2.43334,-1.18773 5.36107,-0.59398 7.13959,1.44754 z m -106.35776,38.17594 38.24953,-10.10828 -33.73515,-16.31555 z m 104.10056,0 -4.51438,-26.42383 -33.80876,16.31555 z m -123.82643,0.34348 12.43907,0.78511 3.21404,-18.89169 z m 143.74858,0 -15.67765,-18.10658 3.23858,18.89169 z m -75.46862,44.06425 v -49.56002 l -0.4907,-0.14721 -44.92296,11.89931 z m 7.50761,-49.70722 -0.31895,0.14721 -0.19628,49.56002 45.41366,-37.80791 z m -65.48301,13.49406 -14.25464,-0.90778 3.53299,27.72416 z m 122.94319,0.12267 10.59898,26.69371 3.65566,-27.60149 z m -105.08196,67.34764 37.43989,-23.94583 -45.60993,-38.1514 z m 95.16996,-62.09722 -45.63447,38.1514 37.48896,23.94583 z m 6.59982,5.61844 -6.45262,49.06932 18.22925,-17.54229 0.14721,-1.07953 z m -116.3679,0.0491 -11.92385,30.44752 0.0736,1.07953 18.27832,17.54229 z m 54.49148,83.58958 v -44.16239 l -33.93143,21.71317 z m 41.14463,-22.4492 -33.95597,-21.71317 0.0245,44.21146 z"
           data-paper-data="{&quot;isPathIcon&quot;:true}"
           id="path7"
           style="fill:#0056b3;fill-opacity:1" />
      </g>
    </g>
  </g>
</svg>
