<?xml version="1.0" encoding="UTF-8" standalone="no"?>
<svg
   svg:contrastcolor="ffe0b6"
   svg:template="InvertedHex1"
   svg:presentation="2.5"
   svg:layouttype="undefined"
   svg:specialfontid="undefined"
   svg:id1="563"
   svg:id2="164"
   svg:companyname="izi MOD"
   svg:companytagline=""
   version="1.1"
   viewBox="0 0 349.32321 240"
   id="svg9"
   sodipodi:docname="logoBlue.svg"
   width="349.32321"
   height="240"
   inkscape:version="1.3 (0e150ed, 2023-07-21)"
   xmlns:inkscape="http://www.inkscape.org/namespaces/inkscape"
   xmlns:sodipodi="http://sodipodi.sourceforge.net/DTD/sodipodi-0.dtd"
   xmlns="http://www.w3.org/2000/svg"
   xmlns:svg="http://www.w3.org/2000/svg">
  <defs
     id="defs9" />
  <sodipodi:namedview
     id="namedview9"
     pagecolor="#505050"
     bordercolor="#eeeeee"
     borderopacity="1"
     inkscape:showpageshadow="0"
     inkscape:pageopacity="0"
     inkscape:pagecheckerboard="0"
     inkscape:deskcolor="#505050"
     inkscape:zoom="1.0906899"
     inkscape:cx="221.87791"
     inkscape:cy="117.35691"
     inkscape:window-width="1312"
     inkscape:window-height="449"
     inkscape:window-x="3"
     inkscape:window-y="30"
     inkscape:window-maximized="0"
     inkscape:current-layer="svg9" />
  <g
     fill="#ffffff"
     fill-rule="none"
     stroke="none"
     stroke-width="1"
     stroke-linecap="butt"
     stroke-linejoin="miter"
     stroke-miterlimit="10"
     stroke-dasharray="none"
     stroke-dashoffset="0"
     font-family="none"
     font-weight="none"
     font-size="none"
     text-anchor="none"
     style="mix-blend-mode:normal;fill:#0056b3;fill-opacity:1"
     id="g9"
     transform="translate(-100.33839,-114.99998)">
    <g
       data-paper-data="{&quot;isGlobalGroup&quot;:true,&quot;bounds&quot;:{&quot;x&quot;:100.33839261151391,&quot;y&quot;:115,&quot;width&quot;:349.32321477697224,&quot;height&quot;:240}}"
       id="g8"
       style="fill:#0056b3;fill-opacity:1">
      <g
         data-paper-data="{&quot;stacked&quot;:true,&quot;isPrimaryText&quot;:true}"
         id="g6"
         style="fill:#0056b3;fill-opacity:1">
        <path
           d="m 305.81021,157.21173 c -0.92383,0.92383 -1.38574,2.03647 -1.38574,3.33791 v 85.02593 c 0,1.30146 0.46191,2.4141 1.38574,3.33793 0.92382,0.92382 2.03646,1.38574 3.33792,1.38574 h 6.44136 c 1.30144,0 2.41408,-0.46191 3.33791,-1.38574 0.92383,-0.92382 1.38575,-2.03647 1.38575,-3.33793 v -85.02593 c 0,-1.30144 -0.46192,-2.41408 -1.38575,-3.33791 -0.92383,-0.92383 -2.03647,-1.38575 -3.33791,-1.38575 h -6.44136 c -1.30146,0 -2.4141,0.46192 -3.33792,1.38575 z m 2.9085,88.36385 v -85.02593 c 0,-0.28628 0.14314,-0.42942 0.42942,-0.42942 h 6.44136 c 0.28628,0 0.42942,0.14314 0.42942,0.42942 v 85.02593 c 0,0.28628 -0.14314,0.42942 -0.42942,0.42942 h -6.44136 c -0.28628,0 -0.42942,-0.14314 -0.42942,-0.42942 z"
           data-paper-data="{&quot;glyphName&quot;:&quot;i&quot;,&quot;glyphIndex&quot;:0,&quot;firstGlyphOfWord&quot;:true,&quot;word&quot;:1,&quot;fontStyleEffect&quot;:true,&quot;line&quot;:1,&quot;firstGlyphOfFirstLine&quot;:true}"
           fill-rule="evenodd"
           id="path1"
           style="fill:#0056b3;fill-opacity:1" />
        <path
           d="m 328.90164,245.57558 c 0,3.14911 1.57455,4.72366 4.72366,4.72366 h 39.93642 c 3.14911,0 4.72366,-1.57455 4.72366,-4.72366 v -6.44136 c 0,-3.14911 -1.57455,-4.72366 -4.72366,-4.72366 h -26.18691 l 30.3126,-63.14077 c 0.0208,-0.0433 0.0401,-0.0872 0.058,-0.13183 0.36,-0.90014 0.54,-1.68127 0.54,-2.34337 v -8.24494 c 0,-3.14911 -1.57455,-4.72366 -4.72366,-4.72366 H 333.6253 c -3.14911,0 -4.72366,1.57455 -4.72366,4.72366 v 6.44136 c 0,3.14911 1.57455,4.72366 4.72366,4.72366 h 26.18691 l -30.3126,63.14077 c -0.0208,0.0433 -0.0401,0.0872 -0.058,0.13183 -0.36,0.90007 -0.54,1.68119 -0.54,2.34337 z m 44.66008,0.42942 H 333.6253 c -0.28628,0 -0.42942,-0.14314 -0.42942,-0.42942 v -8.24494 c 0,-0.10456 0.0691,-0.33266 0.20741,-0.68429 l 31.01493,-64.60361 c 0.0132,-0.0276 0.0259,-0.0554 0.0379,-0.0835 0.47795,-1.11514 0.44775,-2.1303 -0.0906,-3.04547 -0.58559,-0.99555 -1.51383,-1.49332 -2.78471,-1.49332 h -27.9555 c -0.28628,0 -0.42942,-0.14314 -0.42942,-0.42942 v -6.44136 c 0,-0.28628 0.14314,-0.42942 0.42942,-0.42942 h 39.93642 c 0.28628,0 0.42942,0.14314 0.42942,0.42942 v 8.24494 c 0,0.10456 -0.0691,0.33262 -0.20741,0.68418 l -31.01493,64.60371 c -0.0132,0.0275 -0.0259,0.0554 -0.0379,0.0835 -0.47795,1.11514 -0.44775,2.1303 0.0906,3.04547 0.58559,0.99555 1.51383,1.49332 2.78471,1.49332 h 27.9555 c 0.28628,0 0.42942,0.14314 0.42942,0.42942 v 6.44136 c 0,0.28628 -0.14314,0.42942 -0.42942,0.42942 z"
           data-paper-data="{&quot;glyphName&quot;:&quot;z&quot;,&quot;glyphIndex&quot;:1,&quot;word&quot;:1,&quot;fontStyleEffect&quot;:true,&quot;line&quot;:1}"
           fill-rule="evenodd"
           id="path2"
           style="fill:#0056b3;fill-opacity:1" />
        <path
           d="m 388.25961,157.21173 c -0.92383,0.92383 -1.38575,2.03647 -1.38575,3.33791 v 85.02593 c 0,1.30146 0.46192,2.4141 1.38575,3.33793 0.92383,0.92382 2.03647,1.38574 3.33791,1.38574 h 6.44136 c 1.30144,0 2.41408,-0.46191 3.33791,-1.38574 0.92383,-0.92382 1.38575,-2.03647 1.38575,-3.33793 v -85.02593 c 0,-1.30144 -0.46192,-2.41408 -1.38575,-3.33791 -0.92383,-0.92383 -2.03647,-1.38575 -3.33791,-1.38575 h -6.44136 c -1.30144,0 -2.41408,0.46192 -3.33791,1.38575 z m 2.90849,88.36385 v -85.02593 c 0,-0.28628 0.14314,-0.42942 0.42942,-0.42942 h 6.44136 c 0.28628,0 0.42942,0.14314 0.42942,0.42942 v 85.02593 c 0,0.28628 -0.14314,0.42942 -0.42942,0.42942 h -6.44136 c -0.28628,0 -0.42942,-0.14314 -0.42942,-0.42942 z"
           data-paper-data="{&quot;glyphName&quot;:&quot;i&quot;,&quot;glyphIndex&quot;:2,&quot;lastGlyphOfWord&quot;:true,&quot;word&quot;:1,&quot;fontStyleEffect&quot;:true,&quot;line&quot;:1,&quot;lastGlyphOfFirstLine&quot;:true}"
           fill-rule="evenodd"
           id="path3"
           style="fill:#0056b3;fill-opacity:1" />
        <path
           d="m 304.42447,312.36064 c 0,0.92637 0.49882,1.42519 1.42519,1.42519 h 3.56297 c 0.92637,0 1.42519,-0.49882 1.42519,-1.42519 V 288.3462 c 0,-0.64134 0.57008,-0.78385 0.78385,-0.14252 l 6.27083,17.31605 c 0.28504,0.78385 0.85511,1.14015 1.63897,1.14015 h 4.63187 c 0.78385,0 1.35393,-0.3563 1.63897,-1.14015 l 6.34209,-17.45857 c 0.21378,-0.64134 0.78385,-0.49882 0.78385,0.14252 v 24.15696 c 0,0.92637 0.49882,1.42519 1.42519,1.42519 h 3.56297 c 0.92637,0 1.42519,-0.49882 1.42519,-1.42519 v -47.03125 c 0,-0.92637 -0.49882,-1.42519 -1.42519,-1.42519 h -3.77675 c -0.78385,0 -1.42519,0.42756 -1.63897,1.14015 l -10.1901,31.06913 c -0.21378,0.57008 -0.71259,0.57008 -0.92637,0 l -10.04759,-31.06913 c -0.21378,-0.71259 -0.85511,-1.14015 -1.63897,-1.14015 h -3.84801 c -0.92637,0 -1.42519,0.49882 -1.42519,1.42519 z"
           data-paper-data="{&quot;glyphName&quot;:&quot;m&quot;,&quot;glyphIndex&quot;:3,&quot;firstGlyphOfWord&quot;:true,&quot;word&quot;:2,&quot;line&quot;:2,&quot;firstGlyphOfSecondLine&quot;:true}"
           fill-rule="nonzero"
           id="path4"
           style="fill:#0056b3;fill-opacity:1" />
        <path
           d="m 347.18016,308.86892 v 3.56297 c 0,0.92637 0.49882,1.42519 1.42519,1.42519 h 22.09044 c 0.92637,0 1.42519,-0.49882 1.42519,-1.42519 v -3.56297 c 0,-0.92637 -0.49882,-1.42519 -1.42519,-1.42519 h -22.09044 c -0.92637,0 -1.42519,0.49882 -1.42519,1.42519 z m 7.26846,-7.98106 h 10.40388 c 4.20431,0 7.26847,-3.06416 7.26847,-7.26847 v -22.44673 c 0,-4.20431 -3.06416,-7.26847 -7.26847,-7.26847 h -10.40388 c -4.20431,0 -7.26847,3.06416 -7.26847,7.26847 v 22.44673 c 0,4.20431 3.06416,7.26847 7.26847,7.26847 z m -0.85511,-7.83854 v -21.30658 c 0,-0.78385 0.64134,-1.42519 1.42519,-1.42519 h 9.26373 c 0.78385,0 1.42519,0.64134 1.42519,1.42519 v 21.30658 c 0,0.78385 -0.64134,1.42519 -1.42519,1.42519 h -9.26373 c -0.78385,0 -1.42519,-0.64134 -1.42519,-1.42519 z"
           data-paper-data="{&quot;glyphName&quot;:&quot;o&quot;,&quot;glyphIndex&quot;:4,&quot;word&quot;:2,&quot;line&quot;:2}"
           fill-rule="nonzero"
           id="path5"
           style="fill:#0056b3;fill-opacity:1" />
        <path
           d="m 377.82173,308.86892 v 3.56297 c 0,0.92637 0.49882,1.42519 1.42519,1.42519 h 22.09044 c 0.92637,0 1.42519,-0.49882 1.42519,-1.42519 v -3.56297 c 0,-0.92637 -0.49882,-1.42519 -1.42519,-1.42519 h -22.09044 c -0.92637,0 -1.42519,0.49882 -1.42519,1.42519 z m 1.42519,-7.83854 h 16.24716 c 4.20431,0 7.26847,-3.06416 7.26847,-7.26847 v -22.58925 c 0,-4.20431 -3.06416,-7.26847 -7.26847,-7.26847 h -16.24716 c -0.78385,0 -1.42519,0.64134 -1.42519,1.42519 v 34.27581 c 0,0.78385 0.64134,1.42519 1.42519,1.42519 z m 4.98816,-7.83854 v -21.4491 c 0,-0.78385 0.64134,-1.42519 1.42519,-1.42519 h 9.26373 c 0.78385,0 1.42519,0.64134 1.42519,1.42519 v 21.4491 c 0,0.78385 -0.64134,1.42519 -1.42519,1.42519 h -9.26373 c -0.78385,0 -1.42519,-0.64134 -1.42519,-1.42519 z"
           data-paper-data="{&quot;glyphName&quot;:&quot;d&quot;,&quot;glyphIndex&quot;:5,&quot;lastGlyphOfWord&quot;:true,&quot;word&quot;:2,&quot;line&quot;:2,&quot;lastGlyphOfSecondLine&quot;:true}"
           fill-rule="nonzero"
           id="path6"
           style="fill:#0056b3;fill-opacity:1" />
      </g>
      <g
         data-paper-data="{&quot;fillRule&quot;:&quot;evenodd&quot;,&quot;fillRuleOriginal&quot;:&quot;evenodd&quot;,&quot;isIcon&quot;:true,&quot;iconStyle&quot;:&quot;standalone&quot;,&quot;selectedEffects&quot;:{&quot;container&quot;:&quot;&quot;,&quot;transformation&quot;:&quot;&quot;,&quot;pattern&quot;:&quot;&quot;},&quot;bounds&quot;:{&quot;x&quot;:100.33839261151391,&quot;y&quot;:155.50894196719315,&quot;width&quot;:176.76994945919708,&quot;height&quot;:158.66518705686434},&quot;iconType&quot;:&quot;icon&quot;,&quot;isDetailed&quot;:false,&quot;source&quot;:&quot;noun&quot;,&quot;rawIconId&quot;:&quot;3964780&quot;,&quot;suitableAsStandaloneIcon&quot;:true}"
         fill-rule="evenodd"
         id="g7"
         style="fill:#0056b3;fill-opacity:1">
        <path
           d="m 243.13054,157.56912 32.48389,37.5871 c 1.1335,1.29126 1.66051,3.00574 1.44754,4.71065 l -6.7961,50.32059 c -0.18107,1.3337 -0.80302,2.56878 -1.7665,3.50846 l -29.29438,28.19032 c -0.24902,0.26203 -0.52921,0.49291 -0.83418,0.68697 l -46.34598,30.59472 c -0.97697,0.66244 -2.13182,1.01303 -3.31218,1.00592 -1.1735,0.0115 -2.32171,-0.3398 -3.28765,-1.00592 l -46.34598,-30.69286 c -0.31282,-0.19383 -0.6011,-0.42445 -0.85871,-0.68697 l -29.26985,-28.09219 c -0.97109,-0.93747 -1.60138,-2.17205 -1.79103,-3.50846 l -6.77157,-50.32059 c -0.21958,-1.70123 0.29834,-3.41547 1.42301,-4.71065 l 32.50842,-37.5871 c 1.7741,-2.04938 4.70746,-2.6441 7.13959,-1.44754 l 47.25376,22.91538 47.27829,-22.91538 c 2.43334,-1.18773 5.36107,-0.59398 7.13959,1.44754 z m -106.35776,38.17594 38.24953,-10.10828 -33.73515,-16.31555 z m 104.10056,0 -4.51438,-26.42383 -33.80876,16.31555 z m -123.82643,0.34348 12.43907,0.78511 3.21404,-18.89169 z m 143.74858,0 -15.67765,-18.10658 3.23858,18.89169 z m -75.46862,44.06425 v -49.56002 l -0.4907,-0.14721 -44.92296,11.89931 z m 7.50761,-49.70722 -0.31895,0.14721 -0.19628,49.56002 45.41366,-37.80791 z m -65.48301,13.49406 -14.25464,-0.90778 3.53299,27.72416 z m 122.94319,0.12267 10.59898,26.69371 3.65566,-27.60149 z m -105.08196,67.34764 37.43989,-23.94583 -45.60993,-38.1514 z m 95.16996,-62.09722 -45.63447,38.1514 37.48896,23.94583 z m 6.59982,5.61844 -6.45262,49.06932 18.22925,-17.54229 0.14721,-1.07953 z m -116.3679,0.0491 -11.92385,30.44752 0.0736,1.07953 18.27832,17.54229 z m 54.49148,83.58958 v -44.16239 l -33.93143,21.71317 z m 41.14463,-22.4492 -33.95597,-21.71317 0.0245,44.21146 z"
           data-paper-data="{&quot;isPathIcon&quot;:true}"
           id="path7"
           style="fill:#0056b3;fill-opacity:1" />
      </g>
      <path
         d="m 179.61352,347.72673 v -24.82098 l 0.16101,0.10136 2.95866,1.31881 0.21995,0.0599 2.73372,0.71468 v 22.62621 c 0,0.79995 0.39997,1.19992 1.19992,1.19992 h 255.50156 c 0.79995,0 1.19992,-0.39997 1.19992,-1.19992 V 122.2741 c 0,-0.80051 -0.39997,-1.20077 -1.19992,-1.20077 H 186.88678 c -0.79995,0 -1.19992,0.40026 -1.19992,1.20077 v 39.13704 l -6.07334,-0.42979 V 122.2741 c 0,-2.00886 0.71012,-3.72341 2.13037,-5.14366 1.42025,-1.42031 3.13455,-2.13046 5.14289,-2.13046 h 255.50156 c 2.00835,0 3.72264,0.71015 5.14289,2.13046 1.42025,1.42025 2.13037,3.1348 2.13037,5.14366 v 225.45262 c 0,2.00835 -0.71012,3.72264 -2.13037,5.14289 -1.42025,1.42025 -3.13455,2.13037 -5.14289,2.13037 H 186.88678 c -2.00835,0 -3.72264,-0.71012 -5.14289,-2.13037 -1.42025,-1.42025 -2.13037,-3.13455 -2.13037,-5.14289 z"
         data-paper-data="{&quot;isLogoContainer&quot;:true}"
         fill-rule="nonzero"
         id="path8"
         style="fill:#0056b3;fill-opacity:1" />
    </g>
  </g>
</svg>
